<svg width="22" height="22" viewBox="0 0 22 22" fill="none" xmlns="http://www.w3.org/2000/svg">
<path d="M21.3203 14.8504L18.937 6.26036C18.428 4.42283 17.3191 2.80832 15.7867 1.67381C14.2542 0.539289 12.3863 -0.0500437 10.4802 -0.000397369C8.57417 0.049249 6.73949 0.735022 5.26817 1.94778C3.79686 3.16053 2.77347 4.83057 2.36089 6.69211L0.517473 14.9879C0.428275 15.3898 0.43045 15.8067 0.52384 16.2076C0.617229 16.6086 0.799448 16.9834 1.05705 17.3046C1.31466 17.6257 1.64108 17.8849 2.01223 18.063C2.38338 18.2411 2.78979 18.3337 3.20147 18.3338H6.50789C6.71828 19.3699 7.28039 20.3014 8.09899 20.9705C8.91758 21.6395 9.94231 22.005 10.9996 22.005C12.0568 22.005 13.0815 21.6395 13.9001 20.9705C14.7187 20.3014 15.2808 19.3699 15.4912 18.3338H18.6721C19.0957 18.3336 19.5135 18.2355 19.893 18.0473C20.2724 17.859 20.6033 17.5857 20.8597 17.2485C21.1161 16.9113 21.2912 16.5195 21.3712 16.1035C21.4513 15.6875 21.4333 15.2587 21.3203 14.8504ZM10.9996 20.1671C10.4328 20.1648 9.88064 19.9874 9.41858 19.6592C8.95652 19.331 8.60713 18.8681 8.41822 18.3338H13.5809C13.392 18.8681 13.0426 19.331 12.5805 19.6592C12.1185 19.9874 11.5663 20.1648 10.9996 20.1671ZM19.4008 16.1384C19.3153 16.2517 19.2044 16.3435 19.0771 16.4064C18.9498 16.4693 18.8095 16.5015 18.6675 16.5004H3.20147C3.06421 16.5004 2.92871 16.4696 2.80497 16.4102C2.68122 16.3508 2.5724 16.2644 2.48652 16.1573C2.40065 16.0502 2.33992 15.9252 2.30881 15.7915C2.27771 15.6578 2.27702 15.5188 2.30681 15.3849L4.15022 7.08903C4.47505 5.62805 5.27892 4.31758 6.43406 3.36594C7.58919 2.4143 9.02929 1.8761 10.5254 1.83691C12.0216 1.79771 13.4879 2.25977 14.6913 3.14962C15.8946 4.03948 16.766 5.30606 17.1669 6.74803L19.5502 15.3381C19.5891 15.4739 19.5959 15.617 19.57 15.7559C19.544 15.8948 19.4861 16.0257 19.4008 16.1384Z" fill="#4A5E88"/>
</svg>
