<svg width="23" height="23" viewBox="0 0 23 23" fill="none" xmlns="http://www.w3.org/2000/svg">
<path d="M8.63213 6.23635C8.63213 5.44285 9.27613 4.79885 10.0696 4.79885C10.8631 4.79885 11.5071 5.44285 11.5071 6.23635C11.5071 7.02985 10.8631 7.67385 10.0696 7.67385C9.27613 7.67385 8.63213 7.02985 8.63213 6.23635ZM22.85 14.5269C22.1734 16.8461 20.9448 18.9391 19.2974 20.5797C17.7468 22.1226 15.558 23.0081 13.2896 23.0081H9.72271C7.4553 23.0081 5.26646 22.1226 3.71588 20.5807C2.06946 18.94 0.840881 16.847 0.163339 14.5269C-0.181661 13.3462 0.0425889 12.1061 0.778589 11.1239C1.10634 10.6869 1.51171 10.3342 1.9698 10.0774C1.94009 9.87514 1.92476 9.67102 1.92476 9.46402C1.92476 8.02556 2.6598 6.72989 3.84909 5.98623C3.84334 5.9086 3.84046 5.83289 3.84046 5.75814C3.84046 3.5051 5.80792 1.66989 8.09259 1.94973C8.80367 0.760434 10.0878 0.00622559 11.5081 0.00622559C12.9283 0.00622559 14.2125 0.759476 14.9236 1.94877C17.1421 1.68427 19.0875 3.42556 19.1719 5.60864C20.3564 6.3571 21.0914 7.6566 21.0914 9.08164C21.0914 9.4046 21.0521 9.7266 20.9783 10.04C21.4633 10.2997 21.8916 10.6658 22.2357 11.1229C22.9717 12.1042 23.1959 13.3443 22.8509 14.5259L22.85 14.5269ZM3.84142 9.46306C3.84142 9.50618 3.84334 9.54835 3.84526 9.59148H12.5431C12.4885 9.4391 12.4588 9.27523 12.4588 9.10464C12.4588 8.31114 13.1028 7.66714 13.8963 7.66714C14.6898 7.66714 15.3338 8.31114 15.3338 9.10464C15.3338 9.27523 15.304 9.4391 15.2494 9.59148H19.1163C19.1546 9.42664 19.1748 9.25606 19.1748 9.0826C19.1748 8.19614 18.6371 7.39881 17.8053 7.05189C17.4018 6.88323 17.1632 6.46252 17.2265 6.02935C17.2428 5.91914 17.2571 5.84056 17.2571 5.75814C17.2571 4.7011 16.3975 3.84148 15.3405 3.84148C15.1392 3.84148 14.9303 3.88077 14.7041 3.96127C14.4617 4.04848 14.1933 4.03314 13.9624 3.92006C13.7305 3.80698 13.5532 3.60477 13.4727 3.35943C13.188 2.50077 12.3993 1.92385 11.5071 1.92385C10.6149 1.92385 9.82526 2.50173 9.54063 3.36039C9.45917 3.60573 9.28284 3.80698 9.05092 3.92006C8.81901 4.03314 8.55067 4.04848 8.30917 3.96127C8.08301 3.88077 7.87409 3.84148 7.67284 3.84148C6.6158 3.84148 5.75617 4.7011 5.75617 5.75814C5.75617 5.90477 5.78109 6.06577 5.83667 6.2651C5.96796 6.73948 5.71784 7.23589 5.2588 7.41318C4.39726 7.74668 3.84046 8.55168 3.84046 9.46402L3.84142 9.46306ZM20.7014 12.2739C20.3372 11.787 19.7795 11.5081 19.1709 11.5081H3.84238C3.2348 11.5081 2.67705 11.787 2.31288 12.2729C1.94201 12.7674 1.82988 13.3932 2.0043 13.9893C2.58313 15.9711 3.67084 17.8303 5.07001 19.2218C6.26217 20.4101 7.95938 21.0915 9.72271 21.0915H13.2896C15.0539 21.0915 16.7502 20.4101 17.9443 19.2218C19.3425 17.8284 20.4311 15.9701 21.009 13.9893C21.1834 13.3932 21.0713 12.7674 20.7014 12.2739Z" fill="#4A5E88"/>
</svg>
