<svg width="21" height="21" viewBox="0 0 21 21" fill="none" xmlns="http://www.w3.org/2000/svg">
<path d="M1.75 2.62549C1.75 1.17561 2.92513 0.000488281 4.375 0.000488281C5.82487 0.000488281 7 1.17561 7 2.62549C7 4.07536 5.82487 5.25049 4.375 5.25049C2.92513 5.25049 1.75 4.07536 1.75 2.62549ZM6.125 9.62549C6.125 11.0754 7.30013 12.2505 8.75 12.2505C10.1999 12.2505 11.375 11.0754 11.375 9.62549C11.375 8.17561 10.1999 7.00049 8.75 7.00049C7.30013 7.00049 6.125 8.17561 6.125 9.62549ZM13.125 5.25049C14.5749 5.25049 15.75 4.07536 15.75 2.62549C15.75 1.17561 14.5749 0.000488281 13.125 0.000488281C11.6751 0.000488281 10.5 1.17561 10.5 2.62549C10.5 4.07536 11.6751 5.25049 13.125 5.25049ZM5.20888 7.11074C5.02775 6.40899 4.31462 5.98024 3.61025 6.16749C1.51812 6.70561 0 8.71199 0 10.938C0 11.6625 0.587125 12.2505 1.3125 12.2505C2.03787 12.2505 2.625 11.6625 2.625 10.938C2.625 9.90811 3.33025 8.94999 4.26475 8.70849C4.9665 8.52824 5.38912 7.81249 5.20888 7.11074ZM14.875 10.938C14.875 11.6625 15.4621 12.2505 16.1875 12.2505C16.9129 12.2505 17.5 11.6625 17.5 10.938C17.5 8.71199 15.9819 6.70561 13.8897 6.16749C13.188 5.98024 12.4722 6.40811 12.2911 7.11074C12.11 7.81249 12.5326 8.52824 13.2353 8.70849C14.1698 8.94911 14.875 9.90811 14.875 10.938ZM19.6875 15.7505H18.375V14.438C18.375 13.7135 17.7879 13.1255 17.0625 13.1255C16.3371 13.1255 15.75 13.7135 15.75 14.438V15.7505H14.4375C13.7121 15.7505 13.125 16.3385 13.125 17.063C13.125 17.7875 13.7121 18.3755 14.4375 18.3755H15.75V19.688C15.75 20.4125 16.3371 21.0005 17.0625 21.0005C17.7879 21.0005 18.375 20.4125 18.375 19.688V18.3755H19.6875C20.4129 18.3755 21 17.7875 21 17.063C21 16.3385 20.4129 15.7505 19.6875 15.7505ZM10.4563 13.3854C9.9085 13.213 9.3345 13.1255 8.75 13.1255C5.85462 13.1255 3.5 15.285 3.5 17.938C3.5 18.6625 4.08712 19.2505 4.8125 19.2505C5.53788 19.2505 6.125 18.6625 6.125 17.938C6.125 16.7314 7.30275 15.7505 8.75 15.7505C9.06675 15.7505 9.37563 15.7977 9.66875 15.8887C10.3626 16.1092 11.0968 15.7225 11.3146 15.0304C11.5316 14.3391 11.1475 13.6024 10.4563 13.3854Z" fill="#4A5E88"/>
</svg>
